IKResults
version=1
nRows=11
nColumns=40
inDegrees=yes

Units are S.I. units (second, meters, Newtons, ...)
Angles are in degrees.

endheader
time	pelvis_tilt	pelvis_list	pelvis_rotation	pelvis_tx	pelvis_ty	pelvis_tz	hip_flexion_r	hip_adduction_r	hip_rotation_r	knee_angle_r	knee_angle_r_beta	ankle_angle_r	subtalar_angle_r	mtp_angle_r	hip_flexion_l	hip_adduction_l	hip_rotation_l	knee_angle_l	knee_angle_l_beta	ankle_angle_l	subtalar_angle_l	mtp_angle_l	lumbar_extension	lumbar_bending	lumbar_rotation	arm_flex_r	arm_add_r	arm_rot_r	elbow_flex_r	pro_sup_r	wrist_flex_r	wrist_dev_r	arm_flex_l	arm_add_l	arm_rot_l	elbow_flex_l	pro_sup_l	wrist_flex_l	wrist_dev_l
      1.98000000	     15.92558232	      2.53352925	     -2.46534479	      0.26964840	      0.93315362	      1.44484726	    -27.35219658	     -2.43149541	     -6.64276657	    -18.05835362	     -0.31517773	     15.92872637	      2.71441170	     -4.60596250	      2.54030921	     -1.15737768	     24.44492572	    -14.81526449	     -0.25857514	      2.53899746	     -0.61829582	     -7.35338325	    -23.18073325	     -4.69382453	      8.49176503	      3.34420268	    -10.38153763	      2.05642773	     27.63100543	     89.95437384	      0.00000000	      0.00000000	     -9.51003173	      8.25444995	      5.05098524	     17.90066962	     89.95437384	      0.00000000	      0.00000000
      1.99000000	     15.87276035	      2.81421105	     -2.38598955	      0.27697146	      0.93303964	      1.44324218	    -27.50967549	     -2.76472700	     -6.42310339	    -18.59356821	     -0.32451899	     15.67222638	      2.37279230	     -4.54506996	      2.37704581	     -1.47124222	     24.42729602	    -15.18685865	     -0.26506069	      2.03888378	     -0.47641802	     -7.24712190	    -23.14326637	     -5.00947784	      8.13109954	      3.23349137	    -10.21551096	      2.09363831	     27.49703393	     89.95437384	      0.00000000	      0.00000000	     -9.40353672	      8.20887215	      4.98691697	     17.74442257	     89.95437384	      0.00000000	      0.00000000
      2.00000000	     15.92562547	      3.34551351	     -2.69419437	      0.28483404	      0.93340996	      1.44183673	    -27.73799701	     -3.53478727	     -5.93270672	    -19.17636755	     -0.33469075	     15.08695601	      1.46019403	     -4.48006798	      1.77502812	     -2.13780728	     24.89357763	    -15.01603081	     -0.26207918	      0.78649968	     -0.66588082	     -7.24376803	    -23.12364049	     -5.70917067	      8.10432784	      3.05104859	    -10.09308571	      2.09252769	     27.23730969	     89.95437384	      0.00000000	      0.00000000	     -9.30907852	      8.13657000	      5.23209543	     17.59619585	     89.95437384	      0.00000000	      0.00000000
      2.01000000	     15.74757168	      3.56366064	     -2.51060027	      0.29226699	      0.93361070	      1.44012573	    -27.70977814	     -3.74482239	     -5.59383846	    -19.80396240	     -0.34564435	     14.60842581	      1.32618683	     -4.39767177	      1.67516354	     -2.40379256	     24.74923411	    -15.35527881	     -0.26800017	      0.63536810	     -0.69625015	     -7.14929588	    -22.96987808	     -5.93007323	      7.68799709	      2.87577797	     -9.89888603	      2.11049858	     27.09596325	     89.95437384	      0.00000000	      0.00000000	     -9.17745674	      8.13260362	      5.11879025	     17.48480083	     89.95437384	      0.00000000	      0.00000000
      2.02000000	     15.64569381	      3.93915595	     -2.49666153	      0.29990824	      0.93423123	      1.43837112	    -27.65420312	     -4.25558815	     -5.41305988	    -20.59702545	     -0.35948591	     13.75745145	      0.77061713	     -4.24626117	      1.33927800	     -2.92472372	     24.79726450	    -15.37982003	     -0.26842850	      0.50940339	     -1.03617722	     -7.12394354	    -22.82627484	     -6.35216612	      7.44532224	      2.76597507	     -9.72611741	      2.13983042	     26.63571976	     89.95437384	      0.00000000	      0.00000000	     -8.91766017	      8.12343666	      5.02302989	     17.18199592	     89.95437384	      0.00000000	      0.00000000
      2.03000000	     15.50773111	      4.19283449	     -2.45869061	      0.30758558	      0.93498528	      1.43659339	    -27.53623991	     -4.60792074	     -5.04208893	    -21.40993458	     -0.37367385	     12.85109363	      0.28361127	     -4.10126016	      0.93702267	     -3.35345206	     24.71248105	    -15.20561391	     -0.26538803	      0.32749848	     -1.51584935	     -7.10468545	    -22.65828517	     -6.63699039	      7.21826248	      2.54074790	     -9.60384644	      2.14201736	     26.40232597	     89.95437384	      0.00000000	      0.00000000	     -8.73483676	      8.10571404	      4.95098806	     17.08412621	     89.95437384	      0.00000000	      0.00000000
      2.04000000	     15.37388348	      4.34876193	     -2.33444297	      0.31518404	      0.93599044	      1.43476914	    -27.35557830	     -4.82610805	     -4.70193739	    -22.31476194	     -0.38946607	     11.84795903	     -0.18992733	     -3.92594142	      0.46289295	     -3.67633830	     24.64787197	    -14.95887301	     -0.26108159	      0.24519559	     -2.09612177	     -7.10230698	    -22.52221985	     -6.79520993	      6.96098088	      2.28699796	     -9.50927031	      2.29089931	     26.20349950	     89.95437384	      0.00000000	      0.00000000	     -8.50510806	      8.09844768	      4.71394955	     17.04889759	     89.95437384	      0.00000000	      0.00000000
      2.05000000	     15.16914215	      4.38627974	     -2.05591854	      0.32264150	      0.93691087	      1.43271688	    -27.08672859	     -4.84529324	     -4.34074771	    -23.25978179	     -0.40595978	     11.01537397	     -0.31659088	     -3.80754497	      0.15835390	     -3.82027154	     24.50799387	    -14.92342210	     -0.26046285	      0.37304973	     -2.33443683	     -7.03938475	    -22.35829086	     -6.76564775	      6.55347984	      2.02281276	     -9.42713942	      2.35001543	     26.13903073	     89.95437384	      0.00000000	      0.00000000	     -8.32179518	      8.10301413	      4.56700401	     17.11693156	     89.95437384	      0.00000000	      0.00000000
      2.06000000	     15.07014363	      4.39664475	     -1.92249978	      0.33019942	      0.93818721	      1.43084412	    -26.75837535	     -4.94627804	     -4.13249694	    -24.44379878	     -0.42662477	      9.79837403	     -0.54979187	     -3.63866371	     -0.38996366	     -3.97176818	     24.40075958	    -14.73993891	     -0.25726047	      0.50672998	     -2.75115093	     -6.99154183	    -22.25579128	     -6.74667727	      6.35301249	      1.83604142	     -9.37866213	      2.56544860	     25.82612512	     89.95437384	      0.00000000	      0.00000000	     -8.04270618	      8.08588014	      4.32710967	     17.09300999	     89.95437384	      0.00000000	      0.00000000
      2.07000000	     15.06471912	      4.55966032	     -2.11165405	      0.33811747	      0.93964470	      1.42904031	    -26.42838317	     -5.40952315	     -4.03456766	    -25.67220893	     -0.44806457	      8.05968678	     -1.07086939	     -3.37158820	     -1.36643853	     -4.41365175	     24.57694342	    -13.84363571	     -0.24161702	      0.23691012	     -3.88707613	     -7.04451782	    -22.14938974	     -6.98238065	      6.49920889	      1.57022734	     -9.44076593	      3.04719056	     25.43539465	     89.95437384	      0.00000000	      0.00000000	     -7.76145858	      8.07204762	      3.92186145	     17.11674812	     89.95437384	      0.00000000	      0.00000000
      2.08000000	     15.06912595	      4.42390626	     -2.14134862	      0.34575641	      0.94101349	      1.42736953	    -26.00057954	     -5.48405902	     -3.91978100	    -27.10047853	     -0.47299258	      6.36757794	     -1.07832614	     -3.17469958	     -2.16065556	     -4.43405813	     24.73213226	    -13.38565066	     -0.23362368	      0.21944408	     -4.57249907	     -7.03597744	    -22.12797436	     -6.86063660	      6.50558120	      1.37151006	     -9.49826950	      3.47232381	     25.14517458	     89.95437384	      0.00000000	      0.00000000	     -7.54767437	      8.09633946	      3.55192725	     17.34415715	     89.95437384	      0.00000000	      0.00000000
